<?xml version="1.0" standalone="no"?>
<!DOCTYPE svg PUBLIC "-//W3C//DTD SVG 20010904//EN"
 "http://www.w3.org/TR/2001/REC-SVG-20010904/DTD/svg10.dtd">
<svg version="1.0" xmlns="http://www.w3.org/2000/svg"
 width="512.000000pt" height="512.000000pt" viewBox="0 0 512.000000 512.000000"
 preserveAspectRatio="xMidYMid meet">

<g transform="translate(0.000000,512.000000) scale(0.100000,-0.100000)"
fill="#000000" stroke="none">
<path d="M3779 4861 l-24 -19 -5 -524 c-4 -367 -2 -537 6 -571 13 -56 52 -102
109 -128 37 -17 76 -19 572 -19 l532 0 28 24 28 24 0 146 c0 207 28 190 -327
194 l-281 3 191 192 c190 191 211 220 198 270 -3 12 -48 64 -99 115 -140 137
-122 141 -369 -105 l-198 -198 0 263 c0 279 -6 318 -48 341 -12 6 -78 11 -155
11 -118 0 -138 -2 -158 -19z m251 -176 l0 -95 -90 0 -90 0 0 95 0 95 90 0 90
0 0 -95z m605 -325 l-70 -70 -65 65 -65 65 70 70 70 70 65 -65 65 -65 -70 -70z
m-605 40 l0 -80 -90 0 -90 0 0 80 0 80 90 0 90 0 0 -80z m398 -123 l62 -63
-60 -59 -60 -59 -65 64 -65 64 57 58 c32 32 60 58 63 58 3 0 34 -28 68 -63z
m-398 -90 c0 -15 -29 -52 -90 -112 l-90 -90 0 113 0 112 90 0 c87 0 90 -1 90
-23z m207 -99 c59 -58 62 -63 46 -80 -14 -16 -34 -18 -147 -18 l-131 0 80 80
c44 44 82 80 84 80 3 0 34 -28 68 -62z m-157 -293 l0 -95 -86 0 c-81 0 -87 1
-115 29 -21 22 -29 39 -29 66 0 27 8 44 29 66 28 28 34 29 115 29 l86 0 0 -95z
m280 0 l0 -95 -85 0 -85 0 0 95 0 95 85 0 85 0 0 -95z m270 0 l0 -95 -85 0
-85 0 0 95 0 95 85 0 85 0 0 -95z m300 0 l0 -95 -100 0 -100 0 0 95 0 95 100
0 100 0 0 -95z"/>
<path d="M270 4831 c-6 -12 -10 -107 -10 -238 0 -182 3 -222 16 -241 l15 -22
508 0 c479 0 509 1 524 18 15 16 17 48 17 241 0 134 -4 230 -10 242 -10 18
-27 19 -530 19 -503 0 -520 -1 -530 -19z m739 -86 c-3 -2 -52 -25 -108 -50
l-103 -45 -107 46 c-58 26 -108 48 -110 50 -2 2 94 4 214 4 120 0 216 -2 214
-5z m-359 -154 c0 -5 -220 -101 -271 -119 -5 -2 -9 48 -9 121 l0 124 140 -60
c77 -33 140 -63 140 -66z m576 -119 c-5 -5 -264 104 -278 117 -4 3 57 34 135
67 l142 61 3 -120 c1 -66 0 -122 -2 -125z m-318 12 c58 -25 108 -47 111 -50 2
-2 -99 -4 -225 -4 l-229 1 110 49 c61 27 114 49 118 49 5 1 56 -19 115 -45z"/>
<path d="M2370 4375 c-275 -61 -505 -240 -630 -490 -69 -139 -91 -228 -97
-404 -6 -137 -7 -147 -35 -191 -15 -25 -34 -74 -40 -109 -10 -54 -9 -73 6
-131 17 -67 17 -70 -4 -137 -43 -139 -36 -259 22 -381 31 -67 32 -77 2 -152
-13 -33 -18 -73 -19 -145 0 -93 2 -105 32 -166 21 -42 54 -86 91 -121 l59 -56
-43 -11 c-24 -6 -60 -11 -81 -11 -21 0 -55 -8 -74 -18 -20 -10 -67 -26 -105
-37 -38 -10 -86 -26 -106 -37 -82 -40 -152 -143 -163 -239 -3 -24 -17 -358
-31 -741 -27 -776 -29 -737 39 -778 31 -20 61 -20 1367 -20 1306 0 1336 0
1367 20 68 41 66 2 38 777 -13 384 -27 718 -30 742 -11 96 -81 199 -163 239
-20 11 -68 27 -106 37 -38 11 -85 27 -105 37 -19 10 -53 18 -74 18 -21 0 -57
5 -81 11 l-43 11 59 56 c131 125 164 304 88 475 -17 38 -17 38 16 104 59 118
67 247 23 390 -20 63 -20 66 -3 133 15 58 16 77 6 131 -6 36 -25 84 -42 112
-28 46 -30 54 -30 151 0 302 -119 562 -340 744 -73 59 -253 152 -345 177 -84
24 -338 29 -425 10z m610 -870 c45 -31 102 -61 126 -67 l44 -12 0 -286 c0
-211 -4 -303 -15 -355 -56 -266 -301 -465 -575 -465 -274 0 -519 199 -575 465
-10 46 -15 132 -15 253 l0 183 58 -7 c87 -13 239 -8 314 10 172 40 346 136
479 265 41 39 74 71 75 71 1 0 38 -25 84 -55z m353 -181 c135 -68 165 -244 60
-346 -32 -32 -104 -68 -134 -68 -5 0 -9 97 -9 215 l0 215 25 0 c15 0 40 -7 58
-16z m-1500 -58 l37 -16 0 -170 c0 -94 -4 -170 -9 -170 -30 0 -102 36 -134 68
-80 78 -84 210 -8 295 18 21 52 19 114 -7z m572 -1032 c106 -25 294 -14 388
21 15 6 17 0 17 -48 0 -152 46 -220 194 -292 l91 -44 -530 0 -530 0 85 44
c145 76 190 144 190 292 0 48 2 54 18 48 9 -3 44 -13 77 -21z m1113 -472 c10
-7 12 -156 10 -713 l-3 -704 -965 0 -965 0 -3 699 c-1 508 1 703 9 712 10 12
172 14 958 14 520 0 952 -4 959 -8z m-2030 -1164 l2 -265 -30 -6 c-60 -13 -88
-105 -55 -184 8 -19 15 -37 15 -39 0 -8 -179 -4 -184 4 -3 5 1 175 9 378 8
203 15 383 15 400 l0 31 113 -27 112 -26 3 -266z m2386 -87 c8 -217 13 -398
10 -403 -5 -8 -184 -12 -184 -4 0 2 7 20 15 39 33 79 5 171 -55 184 l-30 6 2
265 3 266 110 26 c61 14 111 23 112 20 1 -3 9 -182 17 -399z m-244 -298 c0
-32 -40 -84 -75 -99 -51 -21 -1939 -21 -1990 0 -35 15 -75 67 -75 99 0 16 58
17 1070 17 1012 0 1070 -1 1070 -17z"/>
<path d="M2245 3128 c-31 -18 -44 -40 -45 -75 0 -57 64 -98 116 -74 49 22 61
106 20 140 -21 17 -69 22 -91 9z"/>
<path d="M2802 3130 c-27 -11 -51 -62 -44 -96 5 -29 46 -64 74 -64 27 0 74 26
82 45 17 46 1 91 -41 113 -25 14 -39 14 -71 2z"/>
<path d="M2340 2710 c-24 -24 -25 -29 -3 -60 59 -85 210 -125 324 -85 93 33
151 94 129 135 -16 30 -49 35 -79 11 -95 -78 -205 -80 -293 -6 -36 30 -52 31
-78 5z"/>
<path d="M2396 1024 c-9 -8 -16 -24 -16 -34 0 -44 23 -50 180 -50 148 0 150 0
166 25 15 23 15 27 0 50 -16 25 -18 25 -166 25 -122 0 -151 -3 -164 -16z"/>
<path d="M300 4213 c-38 -14 -40 -29 -40 -325 0 -275 1 -289 20 -308 19 -19
33 -20 233 -20 195 0 215 2 230 18 15 16 17 53 17 308 0 235 -3 294 -14 310
-13 18 -29 19 -223 21 -114 1 -215 -1 -223 -4z m259 -163 c-23 -33 -45 -60
-48 -60 -4 0 -26 27 -49 60 l-43 60 91 0 91 0 -42 -60z m-119 -161 c0 -3 -16
-28 -35 -55 l-35 -49 0 104 0 105 35 -50 c19 -27 35 -52 35 -55z m208 -48 l-3
-49 -33 48 -34 49 34 47 33 47 3 -46 c2 -26 2 -69 0 -96z m-91 -111 l43 -60
-85 0 c-47 0 -85 3 -85 6 0 8 74 113 80 113 3 0 24 -26 47 -59z"/>
<path d="M880 4213 c-38 -14 -40 -29 -40 -325 0 -275 1 -289 20 -308 19 -19
33 -20 233 -20 195 0 215 2 230 18 15 16 17 53 17 308 0 235 -3 294 -14 310
-13 18 -29 19 -223 21 -114 1 -215 -1 -223 -4z m259 -163 c-23 -33 -45 -60
-48 -60 -4 0 -26 27 -49 60 l-43 60 91 0 91 0 -42 -60z m-119 -161 c0 -3 -16
-28 -35 -55 l-35 -49 0 104 0 105 35 -50 c19 -27 35 -52 35 -55z m208 -48 l-3
-49 -33 48 -34 49 34 47 33 47 3 -46 c2 -26 2 -69 0 -96z m-91 -111 l43 -60
-85 0 c-47 0 -85 3 -85 6 0 8 74 113 80 113 3 0 24 -26 47 -59z"/>
<path d="M850 3270 c-222 -29 -390 -220 -390 -444 0 -85 27 -184 65 -240 31
-45 31 -47 2 -74 -21 -19 -27 -21 -55 -11 -65 22 -98 6 -209 -104 -109 -107
-130 -143 -118 -204 9 -47 77 -120 126 -134 64 -20 112 6 217 115 102 105 119
141 102 207 -11 39 -10 44 12 65 l23 23 55 -34 c128 -80 302 -85 442 -14 54
28 143 113 175 167 110 187 71 440 -91 578 -52 45 -149 91 -207 99 -84 11 -94
12 -149 5z m215 -132 c68 -35 128 -97 162 -166 24 -50 28 -69 28 -147 0 -82
-3 -97 -33 -157 -38 -77 -92 -130 -171 -166 -80 -38 -202 -38 -282 0 -79 36
-133 89 -171 166 -30 60 -33 75 -33 157 0 78 4 98 27 145 37 74 111 145 184
176 51 21 71 24 149 21 73 -3 100 -8 140 -29z m-598 -760 c13 -12 23 -28 23
-37 0 -20 -160 -181 -179 -181 -20 0 -61 40 -61 59 0 20 160 181 179 181 8 0
25 -10 38 -22z"/>
<path d="M943 2858 l-62 -62 -40 37 c-47 42 -49 43 -79 21 -37 -26 -27 -54 42
-123 53 -52 68 -63 88 -58 33 9 188 169 188 195 0 27 -26 52 -53 52 -14 0 -46
-24 -84 -62z"/>
<path d="M4246 2974 c-9 -8 -16 -24 -16 -34 0 -10 7 -26 16 -34 13 -14 61 -16
368 -16 329 0 354 1 369 18 22 24 21 45 -1 65 -17 15 -57 17 -370 17 -305 0
-353 -2 -366 -16z"/>
<path d="M3978 2943 c-8 -10 -61 -159 -117 -332 -86 -263 -101 -318 -92 -338
12 -26 61 -33 79 -10 5 6 25 58 43 115 l33 102 87 0 87 0 38 -112 c36 -105 41
-113 67 -116 33 -4 57 13 57 40 0 32 -202 638 -217 654 -19 19 -47 18 -65 -3z
m39 -361 c-27 -2 -51 -1 -54 2 -5 4 33 129 45 150 3 6 18 -26 32 -70 l27 -79
-50 -3z"/>
<path d="M4702 2764 c-24 -17 -29 -53 -10 -72 8 -8 56 -12 150 -12 128 0 138
1 148 20 15 28 3 59 -27 71 -42 16 -235 11 -261 -7z"/>
<path d="M4381 2727 c-42 -15 -70 -51 -77 -99 -6 -31 -3 -38 20 -53 24 -16 28
-16 51 -1 14 9 25 25 25 35 0 20 19 31 54 31 32 0 46 -19 46 -61 l0 -37 -65
-4 c-57 -3 -70 -8 -97 -36 -27 -26 -32 -40 -36 -90 -5 -71 17 -126 59 -147 32
-17 195 -21 219 -5 12 7 16 42 18 187 3 196 -4 225 -60 266 -33 24 -111 31
-157 14z m119 -333 l0 -45 -47 3 c-44 3 -48 5 -51 31 -6 48 3 57 53 57 l45 0
0 -46z"/>
<path d="M4692 2548 c-19 -19 -15 -66 7 -78 11 -5 76 -10 144 -10 107 0 126 2
140 18 22 24 21 45 -1 65 -15 14 -42 17 -148 17 -88 0 -134 -4 -142 -12z"/>
<path d="M4702 2334 c-25 -17 -29 -56 -8 -73 9 -8 59 -11 152 -9 l139 3 10 29
c8 24 6 31 -14 47 -20 16 -40 19 -140 19 -89 0 -122 -4 -139 -16z"/>
</g>
</svg>
